<svg width="101" height="20" viewBox="0 0 101 20" fill="none" xmlns="http://www.w3.org/2000/svg">
<path d="M0 19.6286V4.44286C0 1.98571 1.96487 0 4.39622 0V6.77143C5.27264 5.54286 6.89825 4.81429 8.7359 4.81429C12.1143 4.81429 14.0792 7 14.0792 10.7571V19.6286H9.71126V11.8286C9.71126 10.0143 8.72176 8.84286 7.20924 8.84286C5.47054 8.84286 4.36795 9.98571 4.36795 11.7714V19.6286H0Z" fill="#D2FFFA"/>
<path d="M16.2559 12.4286C16.2559 7.95719 19.2385 4.82861 23.5216 4.82861C27.9744 4.82861 30.7592 7.78576 30.7592 12.4572V13.5715L20.4542 13.6286C20.7086 15.5286 21.7547 16.4143 23.6913 16.4143C24.5536 16.4143 25.2886 16.2429 25.8258 15.9429C27.1969 15.1715 28.7519 14.7858 30.3351 14.7858H30.8157C30.3068 17.9715 27.4938 20.0143 23.6065 20.0143C19.3233 20 16.2559 16.8429 16.2559 12.4286ZM20.5107 10.9H26.4195C26.4195 9.38576 25.3169 8.40004 23.5499 8.40004C21.8112 8.41433 20.85 9.18576 20.5107 10.9Z" fill="#D2FFFA"/>
<path d="M42.9295 9.44308H41.5442C39.0421 9.44308 37.5437 10.5574 37.5437 13.4002V15.2145C37.5437 17.6574 35.5789 19.6288 33.1758 19.6288V5.31451H37.2893L37.5155 7.44308C38.1092 6.04308 39.3672 5.08594 41.2614 5.08594C41.7703 5.08594 42.3358 5.14308 42.9436 5.28594V9.44308H42.9295Z" fill="#D2FFFA"/>
<path d="M60.3176 15.0999C61.8866 15.0999 63.3992 15.5856 64.7562 16.3856C65.1096 16.5856 65.5619 16.6999 66.1415 16.6999C67.4985 16.6999 68.1347 16.2142 68.1347 15.4713C68.1347 15.0428 67.9085 14.5856 66.8624 14.3571L64.2473 13.7856C61.6322 13.2142 60.36 12.0571 60.36 9.54277C60.36 6.55706 62.8903 4.84277 66.297 4.84277C69.5906 4.84277 71.8948 6.79992 71.8948 9.68563H71.4424C69.8875 9.68563 68.4032 9.15706 67.0886 8.3142C66.8342 8.14277 66.4949 8.05706 66.0991 8.05706C65.1096 8.05706 64.4735 8.57134 64.4735 9.34277C64.4735 9.99992 65.0106 10.3713 66.0002 10.5999L68.6435 11.1713C70.9759 11.6856 72.2482 12.7713 72.2482 15.0713C72.2482 18.1428 69.6613 20.0142 65.9719 20.0142C62.2259 20.0142 59.8652 17.9999 59.8652 15.0999H60.3176Z" fill="#D2FFFA"/>
<path d="M57.1511 7.84272C55.8365 6.157 53.7868 5.07129 51.4827 5.07129C49.334 5.07129 47.7084 5.557 46.3938 7.07129C45.2629 8.357 44.2734 10.4999 44.2734 12.357C44.2734 14.4284 45.164 16.3141 46.5352 17.6427C47.8356 18.8999 50.3942 19.6427 52.3308 19.6427C54.6915 19.6427 56.2464 18.1284 57.5611 16.357C58.4657 15.1427 58.6919 13.9999 58.6919 12.357C58.6919 10.657 58.1123 9.08558 57.1511 7.84272ZM53.4758 13.7141C52.3167 15.4427 50.479 16.2427 49.3906 15.4856C48.288 14.7284 48.3445 12.7141 49.5037 10.9856C50.6628 9.257 52.5004 8.457 53.5889 9.21415C54.6774 9.97129 54.6349 11.9856 53.4758 13.7141Z" fill="#D2FFFA"/>
<path d="M75.1309 14.7858V12.1572H76.4031C76.9826 12.1572 77.2088 12.4572 77.2088 12.8287C77.2088 13.2715 76.813 13.4144 76.4172 13.4429C77.0816 13.4715 77.3078 13.7287 77.3078 14.1001C77.3078 14.5858 76.9544 14.7858 76.4031 14.7858H75.1309ZM75.6822 12.6572V13.2144H76.2617C76.4738 13.2144 76.6151 13.1429 76.6151 12.9287C76.6151 12.7144 76.4738 12.6429 76.2476 12.6429H75.6822V12.6572ZM75.6822 13.6715V14.2858H76.3041C76.601 14.2858 76.7282 14.1858 76.7282 13.9715C76.7282 13.7572 76.5727 13.6715 76.3183 13.6715H75.6822Z" fill="#D2FFFA"/>
<path d="M78.1985 14.7858V13.8858L77.209 12.1572H77.9158L78.2268 12.8144L78.4812 13.4144L78.7498 12.8144L79.0749 12.1572H79.7393L78.7498 13.8858V14.7858H78.1985Z" fill="#D2FFFA"/>
<path d="M80.7148 14.7858V12.1572H82.5959V12.6572H81.2664V13.3001H82.3696V13.8001H81.2664V14.7858H80.7148Z" fill="#D2FFFA"/>
<path d="M82.4258 14.7858L83.4012 12.1572H84.1079L85.0833 14.7858H84.4755L84.2634 14.2001H83.2174L83.0054 14.7858H82.4258ZM83.387 13.7287H84.0938L83.8959 13.1715L83.7404 12.6144L83.5849 13.1715L83.387 13.7287Z" fill="#D2FFFA"/>
<path d="M85.2109 14.7858V12.1572H85.7481L86.6669 13.5287L86.9072 13.9429L86.8648 13.3287V12.1572H87.4161V14.7858H86.8931L85.946 13.4001L85.7198 13.0144L85.7622 13.6572V14.7858H85.2109Z" fill="#D2FFFA"/>
<path d="M87.6992 14.2714L88.0667 13.8428C88.2364 14.1714 88.618 14.3143 88.929 14.3143C89.1552 14.3143 89.3107 14.2428 89.3107 14.0571C89.3107 13.8571 89.1411 13.7857 88.8018 13.7143L88.5474 13.6571C88.1516 13.5714 87.7699 13.4 87.7699 12.9C87.7699 12.3857 88.2081 12.1143 88.7311 12.1143C89.2259 12.1143 89.6075 12.3 89.8337 12.6143L89.452 13.0428C89.2824 12.7714 88.9856 12.6143 88.6746 12.6143C88.4767 12.6143 88.3353 12.7 88.3353 12.8571C88.3353 13.0428 88.505 13.1143 88.7735 13.1857L89.0704 13.2571C89.551 13.3714 89.8903 13.5714 89.8903 14.0428C89.8903 14.5428 89.4662 14.8143 88.9149 14.8143C88.406 14.8143 87.9395 14.6571 87.6992 14.2714Z" fill="#D2FFFA"/>
<path d="M75.1309 18.9429V16.3286H77.0119V16.8286H75.6824V17.4715H76.7856V17.9715H75.6824V18.9429H75.1309Z" fill="#D2FFFA"/>
<path d="M77.1113 17.6285C77.1113 16.8714 77.6485 16.2856 78.4118 16.2856C79.1893 16.2856 79.7123 16.8714 79.7123 17.6285C79.7123 18.3856 79.1752 18.9714 78.4118 18.9714C77.6485 18.9856 77.1113 18.3856 77.1113 17.6285ZM79.1327 17.6285C79.1327 17.1571 78.8924 16.8285 78.4118 16.8285C77.9312 16.8285 77.6909 17.1714 77.6909 17.6285C77.6909 18.0999 77.9312 18.4285 78.4118 18.4285C78.9066 18.4428 79.1327 18.0999 79.1327 17.6285Z" fill="#D2FFFA"/>
<path d="M80.0508 18.943V16.3145H81.2523C81.8178 16.3145 82.2277 16.5716 82.2277 17.1287C82.2277 17.6002 81.9167 17.8287 81.4926 17.8859C81.7047 17.943 81.8036 18.0716 81.9167 18.2573L82.3266 18.943H81.6905L81.2523 18.2002C81.1534 18.0287 81.0403 17.9573 80.8141 17.9573H80.6162V18.943H80.0508ZM80.6162 16.8287V17.5145H81.2523C81.4926 17.5145 81.6623 17.4145 81.6623 17.1716C81.6623 16.9145 81.4926 16.8287 81.2523 16.8287H80.6162Z" fill="#D2FFFA"/>
<path d="M83.1465 18.943L84.1218 16.3145H84.8286L85.804 18.943H85.1962L84.9841 18.3573H83.9381L83.726 18.943H83.1465ZM84.1077 17.8859H84.8145L84.6166 17.3287L84.4611 16.7716L84.3056 17.3287L84.1077 17.8859Z" fill="#D2FFFA"/>
<path d="M86.2697 18.9429V16.8286H85.4922V16.3286H87.5984V16.8286H86.821V18.9429H86.2697Z" fill="#D2FFFA"/>
<path d="M87.7539 18.9429V16.3286H88.3052V17.3715H89.4219V16.3286H89.9732V18.9429H89.4219V17.8715H88.3052V18.9429H87.7539Z" fill="#D2FFFA"/>
<path d="M90.4551 18.9429V16.3286H91.0208V18.4572H92.3078V18.9429H90.4551Z" fill="#D2FFFA"/>
<path d="M92.5039 18.9429V16.3286H94.4132V16.8286H93.0555V17.3715H94.1869V17.8715H93.0555V18.4572H94.4132V18.9429H92.5039Z" fill="#D2FFFA"/>
<path d="M95.2755 18.9429V16.8286H94.498V16.3286H96.6043V16.8286H95.8268V18.9429H95.2755Z" fill="#D2FFFA"/>
<path d="M96.7598 18.9429V16.3286H98.6549V16.8286H97.3114V17.3715H98.4428V17.8715H97.3114V18.4572H98.6549V18.9429H96.7598Z" fill="#D2FFFA"/>
<path d="M98.8223 18.4428L99.1898 18.0142C99.3594 18.3428 99.7411 18.4856 100.052 18.4856C100.278 18.4856 100.434 18.4142 100.434 18.2285C100.434 18.0285 100.264 17.9571 99.9249 17.8856L99.6704 17.8285C99.2746 17.7428 98.8929 17.5714 98.8929 17.0714C98.8929 16.5571 99.3312 16.2856 99.8542 16.2856C100.349 16.2856 100.731 16.4714 100.957 16.7856L100.575 17.2142C100.405 16.9428 100.109 16.7856 99.7976 16.7856C99.5997 16.7856 99.4584 16.8714 99.4584 17.0285C99.4584 17.2142 99.628 17.2856 99.8966 17.3571L100.193 17.4285C100.674 17.5428 101.013 17.7428 101.013 18.2142C101.013 18.7142 100.589 18.9856 100.038 18.9856C99.5291 18.9856 99.0626 18.8285 98.8223 18.4428Z" fill="#D2FFFA"/>
</svg>
